<svg width="21" height="21" viewBox="0 0 21 21" fill="none" xmlns="http://www.w3.org/2000/svg">
<path d="M10.5045 0.64624C13.2215 0.64624 13.5605 0.65624 14.6265 0.70624C15.6915 0.75624 16.4165 0.92324 17.0545 1.17124C17.7145 1.42524 18.2705 1.76924 18.8265 2.32424C19.335 2.82414 19.7285 3.42883 19.9795 4.09624C20.2265 4.73324 20.3945 5.45924 20.4445 6.52424C20.4915 7.59024 20.5045 7.92924 20.5045 10.6462C20.5045 13.3632 20.4945 13.7022 20.4445 14.7682C20.3945 15.8332 20.2265 16.5582 19.9795 17.1962C19.7292 17.864 19.3356 18.4689 18.8265 18.9682C18.3265 19.4766 17.7218 19.87 17.0545 20.1212C16.4175 20.3682 15.6915 20.5362 14.6265 20.5862C13.5605 20.6332 13.2215 20.6462 10.5045 20.6462C7.78752 20.6462 7.44852 20.6362 6.38252 20.5862C5.31752 20.5362 4.59252 20.3682 3.95452 20.1212C3.28684 19.8707 2.68204 19.4772 2.18252 18.9682C1.67392 18.4684 1.28045 17.8637 1.02952 17.1962C0.781517 16.5592 0.614517 15.8332 0.564517 14.7682C0.517517 13.7022 0.504517 13.3632 0.504517 10.6462C0.504517 7.92924 0.514517 7.59024 0.564517 6.52424C0.614517 5.45824 0.781517 4.73424 1.02952 4.09624C1.27975 3.42842 1.67332 2.82356 2.18252 2.32424C2.68219 1.81547 3.28694 1.42197 3.95452 1.17124C4.59252 0.92324 5.31652 0.75624 6.38252 0.70624C7.44852 0.65924 7.78752 0.64624 10.5045 0.64624ZM10.5045 5.64624C9.17843 5.64624 7.90666 6.17302 6.96898 7.11071C6.0313 8.04839 5.50452 9.32016 5.50452 10.6462C5.50452 11.9723 6.0313 13.2441 6.96898 14.1818C7.90666 15.1195 9.17843 15.6462 10.5045 15.6462C11.8306 15.6462 13.1024 15.1195 14.0401 14.1818C14.9777 13.2441 15.5045 11.9723 15.5045 10.6462C15.5045 9.32016 14.9777 8.04839 14.0401 7.11071C13.1024 6.17302 11.8306 5.64624 10.5045 5.64624ZM17.0045 5.39624C17.0045 5.06472 16.8728 4.74678 16.6384 4.51236C16.404 4.27794 16.086 4.14624 15.7545 4.14624C15.423 4.14624 15.1051 4.27794 14.8706 4.51236C14.6362 4.74678 14.5045 5.06472 14.5045 5.39624C14.5045 5.72776 14.6362 6.0457 14.8706 6.28012C15.1051 6.51454 15.423 6.64624 15.7545 6.64624C16.086 6.64624 16.404 6.51454 16.6384 6.28012C16.8728 6.0457 17.0045 5.72776 17.0045 5.39624ZM10.5045 7.64624C11.3002 7.64624 12.0632 7.96231 12.6258 8.52492C13.1884 9.08753 13.5045 9.85059 13.5045 10.6462C13.5045 11.4419 13.1884 12.205 12.6258 12.7676C12.0632 13.3302 11.3002 13.6462 10.5045 13.6462C9.70887 13.6462 8.9458 13.3302 8.3832 12.7676C7.82059 12.205 7.50452 11.4419 7.50452 10.6462C7.50452 9.85059 7.82059 9.08753 8.3832 8.52492C8.9458 7.96231 9.70887 7.64624 10.5045 7.64624Z" fill="white"/>
</svg>
