<svg width="21" height="17" viewBox="0 0 21 17" fill="none" xmlns="http://www.w3.org/2000/svg">
<path d="M20.3838 2.30223C19.6204 2.63992 18.8108 2.8617 17.9818 2.96023C18.8555 2.43766 19.5095 1.61524 19.8218 0.646228C19.0018 1.13423 18.1028 1.47623 17.1658 1.66123C16.5364 0.987807 15.7022 0.541191 14.7927 0.390813C13.8833 0.240434 12.9497 0.394719 12.1371 0.829681C11.3244 1.26464 10.6782 1.95591 10.2989 2.79602C9.91963 3.63613 9.82854 4.57801 10.0398 5.47523C8.3769 5.39188 6.75013 4.95975 5.26508 4.20689C3.78004 3.45403 2.46992 2.39728 1.41979 1.10523C1.04808 1.74368 0.852749 2.46945 0.853793 3.20823C0.853793 4.65823 1.59179 5.93923 2.71379 6.68923C2.0498 6.66832 1.40043 6.48901 0.819793 6.16623V6.21823C0.819994 7.18393 1.15416 8.11984 1.76564 8.86729C2.37712 9.61473 3.22828 10.1277 4.17479 10.3192C3.55841 10.4863 2.9121 10.5109 2.28479 10.3912C2.55166 11.2225 3.0718 11.9494 3.77239 12.4703C4.47297 12.9912 5.31892 13.28 6.19179 13.2962C5.32427 13.9776 4.33097 14.4812 3.26867 14.7784C2.20638 15.0756 1.09592 15.1605 0.000793457 15.0282C1.91249 16.2577 4.13789 16.9104 6.41079 16.9082C14.1038 16.9082 18.3108 10.5352 18.3108 5.00823C18.3108 4.82823 18.3058 4.64623 18.2978 4.46823C19.1167 3.8764 19.8234 3.14325 20.3848 2.30323L20.3838 2.30223Z" fill="white"/>
</svg>
